<svg width="20" height="18" viewBox="0 0 20 18" fill="none" xmlns="http://www.w3.org/2000/svg">
<g clip-path="url(#clip0_60_5)">
<path fill-rule="evenodd" clip-rule="evenodd" d="M4.08691 15.249V8.93717H6.92708C8.13639 9.15039 9.33431 9.80143 10.5387 10.5648H12.7441C13.7435 10.625 14.266 11.6374 13.2959 12.3014C12.5228 12.8695 11.5055 12.8369 10.4541 12.7441C9.73307 12.7083 9.70215 13.6751 10.4541 13.68C10.7161 13.7012 11.001 13.6393 11.2484 13.6393C12.5505 13.6393 13.6296 13.3887 14.2871 12.3568L14.6126 11.5853L17.9004 9.95768C19.5426 9.41732 20.7113 11.1344 19.5003 12.3291C17.2113 14.0019 14.7623 15.444 12.1891 16.6341C10.3776 17.736 8.56608 17.6986 6.75944 16.6341L4.08691 15.249ZM8.2373 0L18.8363 3.19987L17.2428 8.76302L16.4974 8.64909L17.6367 4.58008L17.653 4.52799C17.7034 4.34239 17.6783 4.14437 17.5832 3.97723C17.488 3.81008 17.3305 3.68742 17.1452 3.63607L16.7871 3.53841V3.52702L15.1009 3.08105L7.99642 0.838216L8.2373 0ZM6.48437 1.12305L17.0898 4.32129L15.4899 9.88444L4.89095 6.6862L6.48437 1.12305ZM10.1774 4.66471C10.3558 4.4748 10.5866 4.34211 10.8405 4.28342C11.0944 4.22474 11.36 4.2427 11.6036 4.33505C11.8473 4.42739 12.0581 4.58995 12.2093 4.80216C12.3606 5.01437 12.4454 5.26668 12.4532 5.52714C12.4609 5.78761 12.3912 6.04452 12.2529 6.26535C12.1146 6.48618 11.9138 6.661 11.6761 6.76767C11.4383 6.87435 11.1743 6.90808 10.9173 6.8646C10.6604 6.82113 10.4222 6.70239 10.2327 6.52344C9.97937 6.28404 9.83125 5.95394 9.82088 5.60551C9.81051 5.25708 9.93872 4.91876 10.1774 4.66471ZM8.0306 2.48047L15.0439 4.65495C14.9819 4.87206 15.0082 5.10488 15.117 5.30272C15.2258 5.50056 15.4084 5.6474 15.625 5.71126L15.0033 7.91178C14.8953 7.88098 14.7824 7.87174 14.6709 7.8846C14.5593 7.89745 14.4515 7.93216 14.3534 7.98672C14.2553 8.04128 14.1689 8.11464 14.0992 8.2026C14.0294 8.29056 13.9777 8.39139 13.9469 8.49935L6.93197 6.32487C6.99386 6.10732 6.96715 5.87412 6.85767 5.6762C6.74819 5.47828 6.56483 5.33173 6.34766 5.26855L6.97591 3.06803C7.08396 3.09909 7.19707 3.10851 7.30876 3.09577C7.42045 3.08304 7.52854 3.04838 7.62682 2.9938C7.72509 2.93922 7.81164 2.86578 7.88148 2.77769C7.95133 2.68961 8.00311 2.5886 8.03385 2.48047H8.0306ZM0 8.33659H3.23242V15.8838H0V8.33659Z" fill="#E7683F"/>
</g>
<defs>
<clipPath id="clip0_60_5">
<rect width="20" height="17.4463" fill="white"/>
</clipPath>
</defs>
</svg>
