<svg width="160" height="71" viewBox="0 0 160 71" fill="none" xmlns="http://www.w3.org/2000/svg">
<path d="M108.721 33.9087L113.049 53.0233L141.246 39.0146L108.721 33.9087ZM116.721 4.97502L109.115 32.7304L140.59 37.7054L116.721 4.97502ZM82.3607 0.78553L115.803 4.8441L107.935 33.385L82.3607 0.78553ZM81.9673 6.28424H85.9017L96.3935 19.7692L81.9673 6.28424ZM142.164 38.7528L132.328 25.2679L148.066 22.2567L142.164 38.7528ZM140.59 42.5495L141.508 39.6692L116.984 52.2377L140.59 42.5495ZM108.066 34.4324L113.18 57.6055L97.9673 69.9121L108.066 34.4324ZM146.623 29.1955H155.803L149.115 22.5185L146.623 29.1955Z" fill="#E2136E"/>
<path d="M7.08202 27.7554H27.0164V30.6357H6.81973V53.9397C6.81973 53.9397 5.9017 53.8088 5.37711 53.8088C4.85251 53.8088 4.19678 53.9397 4.19678 53.9397V27.6245C4.19678 20.8165 6.81973 16.8889 13.3771 16.4961C19.2787 16.1034 23.8689 19.5073 27.0164 21.2093V24.6133L26.623 24.7442C26.0984 23.435 19.0164 17.5435 14.4263 18.0672C9.70497 18.5909 6.81973 21.8639 6.81973 26.1843C6.81973 26.1843 6.81973 27.3626 7.08202 27.7554Z" fill="#E2136E"/>
<path d="M48.0001 32.5995C52.9837 32.4686 55.4755 34.1705 55.6066 37.9673C55.7378 40.062 54.8198 42.0258 53.3771 43.7278L50.8853 43.8587V43.466C51.8034 43.2041 53.9017 41.764 53.7706 39.1456C53.6394 36.5271 51.6722 34.4324 48.5247 34.5633C48.5247 34.5633 48.0001 34.5633 47.7378 34.6942L48.0001 32.5995Z" fill="#171717"/>
<path d="M24.2622 30.112H27.0163V53.9397L24.2622 53.0233V30.112Z" fill="#E2136E"/>
<path d="M75.1474 33.385C74.0982 29.8501 71.0818 27.7554 68.8523 27.7554H62.9507V30.6357H66.8851C68.59 30.6357 70.2949 30.5047 71.8687 31.9449C72.5245 32.5995 72.7868 33.2541 73.049 34.1705C73.5736 36.3962 72.5245 39.1456 69.9015 39.1456C69.1146 39.1456 68.1966 39.1456 67.4097 38.8837V39.0146C68.0654 39.8002 68.4589 40.8475 68.9835 41.764C70.5572 41.5022 72.131 40.5857 73.1802 39.5383C74.6228 37.8363 75.5408 35.7416 75.1474 33.385Z" fill="#171717"/>
<path d="M79.4756 28.1481C77.7707 28.41 75.1478 29.8501 74.2297 33.5159C73.9674 35.8725 74.6232 37.9673 76.197 39.5383C77.115 40.5857 78.5576 41.5022 79.8691 41.764C80.2625 40.8475 80.7871 39.9311 81.3117 39.0146L81.1806 38.8837C80.5248 39.1456 79.7379 39.1456 78.9511 39.1456C76.197 39.0146 75.8035 36.2653 76.197 34.1705C76.5904 32.3376 78.1642 30.5047 79.8691 30.3738C81.7052 30.2429 83.9347 31.683 84.3281 33.6469C84.5904 34.6942 84.5904 35.7416 84.5904 36.789V54.0706C84.5904 54.0706 85.3773 53.9397 85.9019 53.9397C86.4265 53.9397 87.2134 54.0706 87.2134 54.0706V28.0172H84.3281V30.8975C84.3281 30.7666 84.4593 30.7666 84.3281 30.5047C83.4101 28.8028 81.0494 27.8863 79.4756 28.1481ZM62.4265 27.7554V53.9397C62.4265 53.9397 61.6396 53.8088 61.115 53.8088C60.5904 53.8088 59.8035 53.9397 59.8035 53.9397V30.6357H27.6724V27.7554H62.4265Z" fill="#171717"/>
<path d="M27.0165 53.9397H26.623C16.3935 53.9397 10.623 48.3101 10.623 42.6804C10.623 37.9673 14.9509 32.4686 24.9181 32.4686L26.623 33.7778C19.6722 33.7778 14.0329 38.2291 14.0329 42.6804C14.0329 46.6081 19.0165 52.8923 27.0165 52.8923V53.9397Z" fill="#E2136E"/>
<path d="M45.6392 30.112H48.3933V53.9397L45.6392 53.0233V30.112Z" fill="#171717"/>
<path d="M48.3934 53.9397H48C37.7705 53.9397 32 48.3101 32 42.6804C32 37.9673 36.3279 32.4686 46.2951 32.4686L48 33.7778C41.0492 33.7778 35.4098 38.2291 35.4098 42.6804C35.4098 46.6081 40.3934 52.8923 48.3934 52.8923V53.9397Z" fill="#171717"/>
</svg>
