<svg width="65" height="30" viewBox="0 0 65 30" fill="none" xmlns="http://www.w3.org/2000/svg">
<path d="M58.3324 16.3287L44.5006 14.1522L46.3321 22.4122L58.3324 16.3287Z" fill="white"/>
<path d="M58.3311 16.3261L47.9097 1.81201L44.5085 14.1548L58.3311 16.3261Z" fill="white"/>
<path d="M44.18 13.9871L33.259 0L47.5592 1.71237L44.18 13.9871Z" fill="white"/>
<path d="M39.2062 8.14215L33.1426 2.41516H34.7386L39.2062 8.14215Z" fill="white"/>
<path d="M61.2825 9.26959L58.7157 16.246L54.5555 10.4771L61.2825 9.26959Z" fill="white"/>
<path d="M47.949 21.994L58.0224 17.94L58.4449 16.6512L47.949 21.994Z" fill="white"/>
<path d="M39.8943 29.6444L44.2114 14.4787L46.4001 24.3461L39.8943 29.6444Z" fill="white"/>
<path d="M61.6841 9.32336L60.6258 12.2078L64.4444 12.1449L61.6841 9.32336ZM0 10.4785C0.185767 10.4941 0.372844 10.5283 0.571694 10.5283C0.770545 10.5283 0.931456 10.4941 1.14339 10.4785V16.6132C1.35789 16.1267 1.70327 15.7095 2.14087 15.4085C2.57847 15.1075 3.09103 14.9344 3.62116 14.9088C5.63975 14.9088 6.5058 16.9108 6.5058 18.7516C6.5058 20.9556 5.3284 23.0652 3.27449 23.0652C2.86231 23.0745 2.45547 22.9705 2.09804 22.7645C1.74061 22.5586 1.4462 22.2586 1.24673 21.897C0.902675 22.1999 0.592626 22.5631 0.270802 22.8935H0.00915757L0 10.4785ZM1.11591 19.5016C1.11591 21.2899 1.87207 22.5368 3.11619 22.5368C4.73054 22.5368 5.2499 20.3617 5.2499 18.8198C5.2499 17.0288 4.65989 15.6206 3.26272 15.605C1.63005 15.5918 1.11591 17.5284 1.11591 19.5042V19.5016Z" fill="white"/>
<path d="M11.7713 14.4473L10.5561 16.0206C11.6981 17.6935 12.8821 19.3324 14.0307 21.0264L15.1884 22.862V22.9537C14.9046 22.9354 14.6456 22.8986 14.4035 22.8986C14.1615 22.8986 13.8606 22.9354 13.6055 22.9537C13.2903 22.3677 12.9775 21.8275 12.6192 21.2965L9.48983 16.6564C9.41918 16.5831 9.25043 16.5254 9.25043 16.6014V22.9433C9.02149 22.9249 8.82002 22.8882 8.62248 22.8882C8.42494 22.8882 8.19469 22.9249 7.99454 22.9433V10.4797C8.196 10.4955 8.41186 10.5348 8.62248 10.5348C8.8331 10.5348 9.02149 10.4955 9.25043 10.4797V16.1045C9.25043 16.2146 9.46367 16.1411 9.60496 15.9943C9.87655 15.7119 10.1308 15.4134 10.3664 15.1001L13.8842 10.4733C14.0699 10.4889 14.2544 10.5282 14.4559 10.5282C14.6573 10.5282 14.8104 10.4889 15.0144 10.4733L11.7713 14.4473ZM21.2364 21.5391C21.2364 22.1868 21.1945 22.5171 22.037 22.3021V22.6653C21.8994 22.7346 21.7552 22.7899 21.6067 22.8305C20.8636 22.98 20.2474 22.8463 20.1335 21.8708L20.0027 22.015C19.7545 22.3419 19.4341 22.6068 19.0666 22.7888C18.6992 22.9707 18.2946 23.0649 17.8847 23.0639C17.6256 23.0615 17.3697 23.0064 17.1324 22.9022C16.8952 22.7979 16.6814 22.6466 16.504 22.4573C16.3267 22.268 16.1893 22.0447 16.1004 21.8008C16.0114 21.557 15.9727 21.2975 15.9865 21.0382C15.9865 19.1489 17.2947 18.8998 18.6291 18.652C19.7607 18.4382 20.1466 18.3386 20.1466 17.5414C20.1466 16.3129 19.5462 15.6023 18.4747 15.6023C18.1086 15.5951 17.7492 15.7008 17.445 15.9051C17.1409 16.1093 16.9066 16.4023 16.774 16.7443H16.6171V15.8265C17.2605 15.2654 18.0775 14.9439 18.93 14.9166C20.4292 14.9166 21.2456 15.8265 21.2456 17.7001L21.2364 21.5391ZM20.0956 18.8028L19.5919 18.9182C18.6186 19.1318 17.1613 19.2971 17.1613 20.81C17.1613 21.8589 17.6846 22.3834 18.5597 22.3834C19.0129 22.3275 19.4273 22.0995 19.7176 21.7462C19.8222 21.6256 20.11 21.3437 20.11 21.2217L20.0956 18.8028ZM23.7861 21.3201C23.9304 21.6504 24.1576 21.9377 24.4456 22.1538C24.7335 22.3701 25.0724 22.5078 25.4292 22.5538C25.8133 22.5345 26.1747 22.366 26.4368 22.084C26.6988 21.8019 26.841 21.4287 26.833 21.0435C26.833 18.8054 23.4552 20.2568 23.4552 17.3632C23.4277 17.0444 23.4681 16.7234 23.5738 16.4216C23.6795 16.1197 23.8481 15.8438 24.0683 15.6122C24.2885 15.3806 24.5553 15.1985 24.8511 15.0782C25.1469 14.9578 25.4648 14.9018 25.7838 14.914C26.3523 14.9013 26.9129 15.05 27.4007 15.3428C27.2598 15.7274 27.1466 16.1217 27.0619 16.5227H26.9311C26.8534 16.2433 26.6978 15.9919 26.4825 15.7979C26.2672 15.604 26.0013 15.4757 25.7157 15.428C25.5362 15.4215 25.3574 15.4533 25.1911 15.5214C25.0248 15.5894 24.8748 15.6921 24.7511 15.8227C24.6274 15.9533 24.5329 16.1087 24.4736 16.2786C24.4144 16.4486 24.3918 16.6292 24.4075 16.8085C24.4075 18.9286 27.7853 17.7997 27.7853 20.4522C27.7966 20.8007 27.736 21.148 27.6072 21.472C27.4785 21.7961 27.2844 22.09 27.0371 22.3354C26.7898 22.5808 26.4946 22.7724 26.1699 22.8982C25.8453 23.0241 25.4983 23.0814 25.1506 23.0665C24.5181 23.0656 23.899 22.8837 23.3662 22.5421C23.494 22.1444 23.5942 21.7383 23.6657 21.3266L23.7861 21.3201ZM29.715 10.4797C29.906 10.4955 30.0905 10.5296 30.2893 10.5296C30.4881 10.5296 30.649 10.4955 30.8636 10.4797V16.5109C31.048 16.0465 31.3647 15.6469 31.774 15.3615C32.1834 15.0762 32.6675 14.9178 33.1661 14.9061C34.825 14.9061 35.4686 16.0454 35.4686 18.1367V22.9433C35.2527 22.9249 35.0852 22.8935 34.8942 22.8935C34.7032 22.8935 34.5017 22.9275 34.32 22.9433V18.5209C34.32 16.6853 33.9524 15.7675 32.7344 15.7675C31.4458 15.7675 30.8623 16.6984 30.8623 18.4213V22.9433C30.649 22.9249 30.479 22.8935 30.288 22.8935C30.0969 22.8935 29.9073 22.9275 29.7137 22.9433L29.715 10.4797Z" fill="white"/>
</svg>
